# xmcd
#
# Track frame offsets: 
#        150
#        16387
#        53502
#        80975
#        93930
#        141032
#        164466
#        171156
#        182393
#        202707
#        205161
#        209955
#        222173
#        230787
#        240705
#        246830
#        263104
#        278383
#        297447
#        315751
#
# Disc length: 4444 seconds
#
# Revision: 1
# Processed by: cddbd v1.5.2PL0 Copyright (c) Steve Scherf et al.
# Submitted via: ExactAudioCopy v0.95b1
#
DISCID=1d115a14
DTITLE=Vladimir Horowitz - Pictures At An Exhibition and Other Favourite
DTITLE=s
DYEAR=2006
DGENRE=Classical
TTITLE0=Horowitz - Variations On A Theme From Bizet's Carmen (Danse Bo
TTITLE0=hème)
TTITLE1=Saint Saëns (arr. Liszt and Horowitz) - Danse Macabre - orchestr
TTITLE1=a, Op.40
TTITLE2=Mendelssohn (arr. Liszt and Horowitz) - Wedding March and Variatio
TTITLE2=ns (A Midsummer Night's Dream, Op.61)
TTITLE3=Liszt - Valse Oubliée No.1 - piano
TTITLE4=Liszt - Funérailles (Harmonies Poétiques Et Religieuses - pian
TTITLE4=o pieces, S173)
TTITLE5=Liszt - Rákóczy March (Hungarian Rhapsody No.15 in A minor - p
TTITLE5=iano)
TTITLE6=Mussorgsky (arr. Horowitz) - Pictures At An Exhibition - 01. P
TTITLE6=romenade I
TTITLE7=Mussorgsky (arr. Horowitz) - Pictures At An Exhibition - 02. G
TTITLE7=nomus (The Gnome)
TTITLE8=Mussorgsky (arr. Horowitz) - Pictures At An Exhibition - 03. P
TTITLE8=romenade II and Il Vecchio Castello (The Old Castle)
TTITLE9=Mussorgsky (arr. Horowitz) - Pictures At An Exhibition - 04. P
TTITLE9=romenade III
TTITLE10=Mussorgsky (arr. Horowitz) - Pictures At An Exhibition - 05. 
TTITLE10=In The Tuileries Garden (Dispute d'enfants après jeux)
TTITLE11=Mussorgsky (arr. Horowitz) - Pictures At An Exhibition - 06. 
TTITLE11=Bydlo (A Polish WagonOn Enormous Wheels Drawn By Oxen)
TTITLE12=Mussorgsky (arr. Horowitz) - Pictures At An Exhibition - 07. 
TTITLE12=Promenade IV and Ballet Of The Unhatched Chicks
TTITLE13=Mussorgsky (arr. Horowitz) - Pictures At An Exhibition - 08. 
TTITLE13=Two Polish Jews, One Rich, One Poor (Samuel Goldenberg and Sc
TTITLE13=hmuyl
TTITLE14=Mussorgsky (arr. Horowitz) - Pictures At An Exhibition - 09. 
TTITLE14=The Marketplace At Limoges
TTITLE15=Mussorgsky (arr. Horowitz) - Pictures At An Exhibition - 10. 
TTITLE15=Catacombae (Sepulcrum Romanum) - Con Mortuis In Lingua Mortua
TTITLE15=(Wit
TTITLE16=Mussorgsky (arr. Horowitz) - Pictures At An Exhibition - 11. 
TTITLE16=The Hut On Fowl's Legs (Baba Yaga)
TTITLE17=Mussorgsky (arr. Horowitz) - Pictures At An Exhibition - 12. 
TTITLE17=The Great Gate At Kiev
TTITLE18=Mussorgsky (arr. Horowitz) - By The Water (or 'On The River')
TTITLE19=Sousa (arr. Horowitz) - The Stars And Stripes Forever - march
EXTD=
EXTT0=
EXTT1=
EXTT2=
EXTT3=
EXTT4=
EXTT5=
EXTT6=
EXTT7=
EXTT8=
EXTT9=
EXTT10=
EXTT11=
EXTT12=
EXTT13=
EXTT14=
EXTT15=
EXTT16=
EXTT17=
EXTT18=
EXTT19=
PLAYORDER=
